# xmcd CD database file
#
# Track frame offsets:
#	150
#	27784
#	56294
#	81477
#	97194
#	119734
#	146352
#	176527
#	197618
#
# Disc length: 2806 seconds
#
# Revision: 0
# Processed by: cddbd v1.5.2PL0 Copyright (c) Steve Scherf et al.
# Submitted via: CDex 1.51
#
DISCID=790af409
DTITLE=Charlie Mariano - Meets New On The Corner and Wuerzburger Streichquartett
DYEAR=2004
DGENRE=Jazz
TTITLE0=Django
TTITLE1=Bilboka Argiaka
TTITLE2=Dick Is Slick
TTITLE3=E Lucevan Le Stelle
TTITLE4=Revelling On Ravel
TTITLE5=Goodbye Pork Pie Hat
TTITLE6=Tango
TTITLE7=Vesti la Giubba
TTITLE8=Soul Eyes
EXTD=YEAR: 2004
EXTT0=
EXTT1=
EXTT2=
EXTT3=
EXTT4=
EXTT5=
EXTT6=
EXTT7=
EXTT8=
PLAYORDER=
